<svg xmlns="http://www.w3.org/2000/svg" xmlns:xlink="http://www.w3.org/1999/xlink" width="1920" zoomAndPan="magnify" viewBox="0 0 1440 809.999993" height="1080" preserveAspectRatio="xMidYMid meet" version="1.0"><defs><g/><clipPath id="533dae9d23"><path d="M 400.589844 57.132812 L 1025.222656 57.132812 L 1025.222656 681.769531 L 400.589844 681.769531 Z M 400.589844 57.132812 " clip-rule="nonzero"/></clipPath><clipPath id="00e6bae2ef"><path d="M 712.90625 57.132812 C 540.417969 57.132812 400.589844 196.964844 400.589844 369.453125 C 400.589844 541.941406 540.417969 681.769531 712.90625 681.769531 C 885.394531 681.769531 1025.222656 541.941406 1025.222656 369.453125 C 1025.222656 196.964844 885.394531 57.132812 712.90625 57.132812 Z M 712.90625 57.132812 " clip-rule="nonzero"/></clipPath><clipPath id="559a9ad21b"><path d="M 522.089844 185.441406 L 640.589844 185.441406 L 640.589844 301.691406 L 522.089844 301.691406 Z M 522.089844 185.441406 " clip-rule="nonzero"/></clipPath><clipPath id="8b0ac92fbd"><path d="M 565 464 L 631.867188 464 L 631.867188 500.695312 L 565 500.695312 Z M 565 464 " clip-rule="nonzero"/></clipPath><clipPath id="bad1e8d681"><path d="M 536.617188 433 L 592 433 L 592 476 L 536.617188 476 Z M 536.617188 433 " clip-rule="nonzero"/></clipPath><clipPath id="5d1ec8a7b3"><path d="M 559 397.195312 L 612 397.195312 L 612 472 L 559 472 Z M 559 397.195312 " clip-rule="nonzero"/></clipPath><clipPath id="51983eac7d"><path d="M 782 313.375 L 893.964844 313.375 L 893.964844 425.875 L 782 425.875 Z M 782 313.375 " clip-rule="nonzero"/></clipPath></defs><g clip-path="url(#533dae9d23)"><g clip-path="url(#00e6bae2ef)"><path fill="#174f59" d="M 400.589844 57.132812 L 1025.222656 57.132812 L 1025.222656 681.769531 L 400.589844 681.769531 Z M 400.589844 57.132812 " fill-opacity="1" fill-rule="nonzero"/></g></g><g clip-path="url(#559a9ad21b)"><path fill="#000000" d="M 547.132812 253.128906 C 546.328125 253.183594 545.28125 253.546875 544.578125 254.808594 C 544.003906 255.84375 542.65625 256.007812 542.027344 255.800781 C 540.984375 255.453125 539.644531 255.210938 538.351562 256.136719 C 537.054688 257.0625 535.65625 256.363281 535.902344 254.675781 C 536.144531 252.988281 536.753906 251.488281 538.367188 250.554688 C 541.890625 248.523438 539.441406 247.109375 541.375 245.070312 C 543.3125 243.027344 542.882812 242.398438 542.820312 239.625 C 536.273438 238.636719 532.5625 236.746094 528.417969 231.554688 C 524.273438 226.359375 522.667969 222.085938 522.238281 215.578125 C 521.808594 209.066406 522.179688 204.847656 524.984375 199.445312 C 527.789062 194.039062 530.742188 191.441406 535.859375 188.742188 C 540.976562 186.042969 545.992188 185.398438 550.625 185.476562 C 555.257812 185.554688 558.347656 185.894531 560.964844 187.394531 C 563.582031 188.890625 565.980469 190.777344 567.503906 190.792969 C 569.03125 190.804688 570.074219 190.402344 570.816406 189.832031 C 571.011719 194.878906 566.484375 195.316406 562.433594 195.425781 C 558.382812 195.53125 555.890625 193.851562 552.160156 194.476562 C 548.429688 195.101562 542.320312 196.804688 539.34375 202 C 536.367188 207.195312 536.265625 209.03125 536.511719 213.386719 C 536.761719 217.746094 540.5 220.996094 542.609375 221.03125 C 544.722656 221.066406 545.191406 220.453125 547.039062 219.246094 C 548.886719 218.035156 558.320312 206.328125 561.539062 203.695312 C 564.757812 201.066406 567.933594 200.253906 571.363281 200.210938 C 574.792969 200.167969 575.667969 200.285156 578.433594 201.421875 C 581.199219 202.558594 582.898438 204.652344 585.128906 205.933594 C 586.269531 205.261719 586.976562 204.253906 588.023438 203.488281 C 591.761719 200.746094 593.707031 200.007812 598.152344 200.441406 C 600.707031 200.691406 603.929688 202.15625 605.851562 203.832031 C 609.273438 206.816406 612.101562 210.972656 614.386719 214.128906 C 616.167969 216.585938 618.261719 219.527344 621.25 220.449219 C 624.515625 221.453125 626.972656 217.210938 627.332031 214.859375 C 627.535156 213.527344 627.800781 212.359375 627.804688 210.894531 C 627.808594 209.425781 627.65625 207.648438 627.234375 206.117188 C 626.816406 204.589844 626.09375 203.070312 625.308594 201.808594 C 624.039062 199.753906 621.957031 197.609375 619.789062 196.503906 C 618.574219 195.882812 615.714844 194.753906 613.910156 194.714844 C 611.699219 194.667969 610.015625 195.410156 607.972656 195.550781 C 605.5 195.71875 601.085938 196.277344 599.148438 194.363281 C 597.914062 193.144531 597.757812 192.328125 597.546875 190.738281 C 598.09375 191.191406 598.855469 191.484375 599.53125 191.542969 C 601.082031 191.675781 602.53125 190.40625 603.78125 189.671875 C 604.808594 189.066406 606.269531 187.984375 607.621094 187.4375 C 611.09375 186.035156 615.363281 186.074219 619.03125 186.449219 C 621.96875 186.753906 625.78125 188.0625 628.359375 189.527344 C 630.949219 190.996094 633.445312 193.476562 635.273438 195.8125 C 637.574219 198.75 638.832031 201.273438 639.664062 204.9375 C 640.730469 209.621094 641.023438 216.652344 639.738281 221.269531 C 638.722656 224.90625 635.355469 230.492188 632.484375 233.230469 C 629.65625 235.933594 626.390625 237.238281 622.675781 237.949219 C 622.824219 238.703125 622.847656 239.402344 623.039062 240.019531 C 623.3125 240.894531 623.835938 241.871094 624.90625 241.5625 C 625.335938 241.4375 625.5625 241.332031 626.128906 241.828125 C 626.691406 242.320312 626.398438 244.234375 624.8125 245.089844 C 624.007812 245.527344 623.160156 245.621094 621.871094 245.644531 C 620.582031 245.671875 618.570312 245.675781 617.171875 245.433594 C 615.773438 245.1875 614.941406 244.074219 613.390625 243.898438 C 610.996094 243.632812 609.164062 241.898438 607.246094 240.65625 C 606.445312 240.140625 606.175781 240.132812 605.714844 239.871094 C 605.964844 240.636719 606.296875 241.433594 606.460938 242.167969 C 606.628906 242.90625 606.554688 243.585938 606.644531 244.175781 C 606.734375 244.761719 606.894531 245.222656 606.992188 245.699219 C 607.375 246.042969 607.496094 246.566406 608.140625 246.730469 C 608.785156 246.894531 609.792969 246.636719 610.453125 246.550781 C 611.113281 246.460938 611.554688 246.101562 612.070312 246.199219 C 612.589844 246.296875 613.078125 246.667969 613.515625 247.015625 C 613.949219 247.367188 614.320312 247.417969 614.671875 248.285156 C 615.023438 249.15625 615.34375 250.933594 615.390625 252.125 C 615.441406 253.3125 615.308594 254.386719 614.957031 255.332031 C 614.605469 256.277344 614.296875 256.695312 613.34375 257.628906 C 612.390625 258.5625 610.839844 259.9375 609.296875 260.890625 C 609.578125 261.316406 609.707031 261.703125 610.148438 262.160156 C 610.59375 262.621094 611.519531 263.132812 611.933594 263.617188 C 612.34375 264.101562 612.554688 264.449219 612.558594 264.992188 C 612.566406 265.535156 612.539062 266.242188 612.097656 266.835938 C 611.003906 268.308594 609.707031 268.574219 608.132812 269.265625 C 608.398438 270.925781 608.613281 272.109375 608.230469 273.765625 C 608.074219 274.441406 607.730469 275.972656 606.898438 276.363281 C 606.070312 276.757812 604.46875 276.566406 603.453125 276.726562 C 602.441406 276.890625 601.875 277.042969 601.085938 277.199219 C 600.605469 277.894531 599.890625 278.664062 599.644531 279.289062 C 599.398438 279.910156 599.472656 280.136719 599.679688 280.773438 C 599.886719 281.410156 600.585938 282.335938 600.785156 283.082031 C 600.984375 283.828125 601.023438 284.632812 600.835938 285.378906 C 600.652344 286.128906 600.332031 286.671875 599.699219 287.335938 C 599.0625 288 597.8125 288.519531 597.1875 289.058594 C 596.566406 289.597656 595.945312 289.660156 596.117188 290.554688 C 596.347656 291.777344 598.132812 293.761719 599.421875 294.234375 C 600.195312 294.519531 601.234375 294.429688 602.171875 294.03125 C 602.109375 295.078125 601.207031 295.78125 600.617188 296.476562 C 602.210938 296.015625 603.761719 295.140625 604.832031 293.980469 C 604.5 294.988281 603.355469 296.609375 601.648438 298.03125 C 599.941406 299.453125 599.949219 299.160156 599.101562 299.726562 C 600.648438 300.039062 602.089844 299.953125 603.292969 299.738281 C 602.632812 300.101562 601.554688 300.613281 600.125 300.765625 C 598.695312 300.914062 597.816406 300.808594 596.527344 300.496094 C 595.242188 300.179688 594.066406 299.007812 592.503906 298.195312 C 592.65625 298.777344 592.765625 299.476562 593.421875 300.074219 C 594.078125 300.667969 595.070312 300.972656 596.125 301.488281 C 594.78125 301.335938 593.371094 301.289062 592.050781 301 C 591.074219 300.78125 590.417969 300.554688 589.699219 300.199219 C 588.984375 299.84375 588.433594 299.324219 587.800781 298.886719 C 588.105469 299.46875 588.195312 300.152344 588.710938 300.632812 C 589.226562 301.113281 590.066406 301.289062 590.746094 301.617188 C 590.039062 301.601562 589.355469 301.757812 588.621094 301.574219 C 587.886719 301.386719 587.199219 301.097656 586.433594 300.53125 C 585.671875 299.96875 584.882812 299.273438 584.234375 298.5625 C 583.582031 297.851562 582.777344 296.933594 582.535156 296.277344 C 582.289062 295.621094 582.679688 295.164062 582.753906 294.609375 C 582.304688 294.90625 581.75 295.066406 581.40625 295.5 C 581.058594 295.929688 580.753906 296.320312 580.90625 297.070312 C 581.058594 297.820312 581.75 298.738281 582.238281 299.570312 C 580.78125 298.378906 579.96875 297.917969 579.621094 296.476562 C 579.296875 295.128906 580.136719 293.90625 580.773438 292.886719 C 581.089844 292.378906 581.566406 291.90625 581.863281 291.417969 C 581.203125 290.773438 580.453125 290.21875 579.886719 289.484375 C 579.324219 288.746094 579.089844 287.753906 578.511719 287.046875 C 577.9375 286.34375 577.164062 285.898438 576.488281 285.324219 C 577.082031 286.601562 578.054688 288.164062 578.269531 289.152344 C 578.480469 290.140625 578.03125 290.746094 577.679688 291.28125 C 577.332031 291.8125 576.765625 291.929688 576.230469 292.257812 C 575.695312 292.585938 574.863281 292.328125 574.546875 292.816406 C 574.226562 293.300781 574.140625 294.03125 574.445312 294.515625 L 575.695312 296.492188 C 575.234375 296.261719 574.441406 295.582031 574.085938 295.101562 C 573.726562 294.621094 573.179688 294.175781 573.101562 293.527344 C 573.027344 292.875 572.992188 292.3125 573.410156 291.730469 C 573.832031 291.152344 574.980469 290.960938 575.496094 290.515625 C 576.011719 290.070312 576.300781 289.777344 576.269531 289.203125 C 576.242188 288.628906 575.679688 288.214844 575.199219 287.851562 C 573.726562 286.746094 571.839844 285.726562 570.59375 284.394531 C 569.886719 283.640625 569.546875 283.03125 569.40625 282.511719 C 569.265625 281.992188 569.414062 281.585938 569.765625 280.949219 C 570.113281 280.308594 571.316406 279.453125 571.464844 278.761719 C 571.609375 278.066406 571.003906 277.917969 570.453125 277.671875 C 569.90625 277.425781 568.867188 277.796875 568.355469 277.371094 C 567.847656 276.945312 568.507812 276.050781 567.933594 275.558594 C 567.359375 275.066406 566.050781 275.339844 565.375 274.8125 C 564.695312 274.285156 564.417969 273.628906 564.183594 272.863281 C 563.949219 272.097656 563.925781 271.257812 564.082031 270.703125 C 564.238281 270.148438 564.714844 270.050781 565 269.761719 C 565.289062 269.476562 565.535156 269.238281 565.15625 268.808594 C 564.773438 268.378906 563.523438 268.832031 562.804688 268.28125 C 562.085938 267.730469 562.523438 266.410156 562.015625 265.855469 C 561.507812 265.300781 560.59375 265.515625 560.113281 265.339844 C 559.632812 265.164062 559.445312 265.789062 559.148438 264.796875 C 558.855469 263.808594 558.847656 260.851562 558.449219 259.75 C 558.050781 258.648438 557.273438 259.675781 556.910156 258.578125 C 556.546875 257.484375 556.890625 255.730469 556.726562 254.078125 L 555.988281 249.574219 C 553.410156 251.3125 551.707031 251.855469 548.9375 252.347656 C 548.707031 259.144531 548.070312 263.148438 550.371094 270.691406 C 552.671875 278.230469 557.328125 282.675781 563.605469 289.058594 C 555.320312 282.832031 551.363281 277.769531 548.886719 271.285156 C 546.410156 264.800781 546.886719 259.375 547.132812 253.128906 Z M 591.171875 250.398438 C 591.8125 250.425781 592.585938 250.585938 593.035156 250.878906 C 593.480469 251.171875 593.957031 251.410156 594.363281 251.824219 C 595.378906 252.859375 596.136719 254.109375 596.472656 255.542969 C 596.6875 256.460938 596.71875 257.632812 596.796875 258.707031 C 596.492188 257.714844 596.285156 256.679688 595.847656 255.789062 C 595.160156 254.386719 593.988281 253.015625 592.53125 252.386719 C 592.050781 252.179688 591.730469 252.214844 591.46875 252.253906 C 591.585938 252.453125 591.785156 252.617188 591.792969 252.910156 C 591.800781 253.203125 591.738281 253.773438 591.242188 254.011719 C 590.449219 254.398438 589.566406 254.125 588.953125 253.582031 C 588.335938 253.035156 588.125 252.105469 588.449219 251.308594 C 588.832031 250.359375 590.304688 250.359375 591.171875 250.398438 Z M 583.179688 249.046875 C 583.257812 247.414062 583.847656 246.035156 585.304688 245.234375 C 586.058594 244.820312 587.222656 244.285156 588.289062 244.160156 C 589.316406 244.039062 591.8125 244.128906 593.3125 244.816406 C 594.464844 245.34375 595.25 246.164062 596.261719 246.765625 C 597.273438 247.367188 597.992188 247.769531 598.957031 248.441406 C 600.4375 249.476562 601.304688 250.613281 602.328125 251.296875 C 602.824219 251.625 603.515625 251.574219 604.171875 251.773438 C 603.660156 251.925781 602.996094 252.09375 602.445312 251.917969 C 601.761719 251.699219 600.804688 251.070312 600.273438 250.621094 C 599.335938 249.824219 598.847656 249.4375 597.824219 248.835938 C 597.210938 248.480469 596.203125 248.058594 595.53125 247.617188 C 594.859375 247.179688 593.691406 246.214844 593.046875 245.886719 C 592.222656 245.472656 590.746094 245.242188 589.832031 245.269531 C 588.570312 245.304688 586.746094 245.515625 585.769531 246.402344 C 584.800781 247.285156 584.433594 248.058594 584.652344 249.207031 C 585.019531 248.785156 585.261719 248.253906 585.625 247.941406 C 586.382812 247.292969 587.253906 247.261719 588.195312 247.382812 C 589.253906 247.523438 589.785156 248.136719 590.136719 249.144531 C 589.902344 248.96875 589.46875 248.589844 589.125 248.472656 C 588.324219 248.195312 587.71875 248.28125 586.96875 248.683594 C 586.082031 249.160156 586.324219 249.867188 586.195312 250.652344 C 586.136719 251.011719 586 251.304688 585.902344 251.632812 C 585.570312 251.542969 585.261719 251.40625 585.007812 251.152344 C 585.019531 251.519531 584.964844 251.839844 585.042969 252.253906 C 585.117188 252.664062 585.316406 253.15625 585.453125 253.605469 C 584.835938 252.988281 584.203125 252.410156 583.804688 251.613281 C 583.40625 250.8125 583.136719 249.925781 583.179688 249.046875 Z M 584.246094 237.164062 C 584.703125 236.484375 584.835938 235.445312 585.117188 234.601562 C 585.003906 235.671875 585.21875 236.847656 584.699219 237.625 C 584.175781 238.398438 583.261719 238.261719 582.503906 238.488281 C 583.09375 238.035156 583.792969 237.839844 584.246094 237.164062 Z M 573.355469 253.027344 C 573.9375 252.550781 575.515625 252.929688 576.695312 253.015625 C 575.847656 253.234375 575 253.449219 574.152344 253.667969 C 574.074219 253.957031 574.109375 254.289062 573.914062 254.535156 C 573.722656 254.78125 573.351562 254.875 573.074219 255.042969 C 573.101562 254.28125 572.769531 253.5 573.355469 253.027344 Z M 581.664062 220.082031 C 582.367188 220.460938 583.261719 220.964844 583.882812 220.980469 C 584.503906 220.996094 584.667969 220.570312 585.03125 220.328125 C 585.605469 222.207031 586.265625 224.277344 587.246094 225.984375 C 587.65625 226.699219 587.917969 226.367188 588.230469 227.085938 C 588.542969 227.804688 588.679688 229.265625 588.976562 230.183594 C 589.273438 231.101562 589.660156 231.777344 590 232.574219 C 589.132812 231.34375 588.015625 229.773438 587.53125 228.75 C 587.050781 227.726562 587.359375 227.636719 586.96875 226.664062 C 586.578125 225.6875 585.789062 224.167969 585.199219 222.917969 C 584.777344 222.976562 584.253906 223.050781 583.933594 222.953125 C 583.609375 222.851562 583.675781 222.511719 583.386719 222.289062 C 583.09375 222.066406 582.605469 222.152344 582.199219 221.800781 C 581.792969 221.449219 581.699219 220.722656 581.664062 220.082031 Z M 577.871094 229.363281 C 578.535156 229.308594 579.359375 229.484375 579.976562 229.449219 C 580.597656 229.414062 581.042969 229.253906 581.574219 229.15625 C 581.472656 228.21875 581.566406 226.496094 580.707031 225.871094 C 580.148438 225.464844 577.859375 225.769531 577.25 225.902344 C 575.875 226.199219 574.269531 227.023438 572.941406 227.539062 C 574.214844 226.644531 575.316406 225.816406 576.847656 225.355469 C 577.765625 225.078125 579.910156 224.71875 580.859375 224.976562 C 581.292969 225.09375 581.378906 225.273438 581.640625 225.640625 C 582.546875 226.90625 582.542969 227.996094 582.777344 229.46875 C 583.007812 229.828125 583.253906 230.070312 583.4375 230.441406 C 583.625 230.8125 583.730469 231.398438 583.78125 231.875 C 583.546875 231.53125 583.691406 231.097656 583.035156 230.84375 C 582.382812 230.585938 581.378906 230.828125 580.496094 230.917969 C 581.140625 231.382812 581.460938 231.832031 581.484375 232.816406 C 581.511719 233.972656 580.539062 234.804688 579.519531 234.882812 C 578.105469 234.992188 577.375 234.679688 576.804688 233.46875 C 576.554688 232.9375 576.734375 232.300781 576.714844 231.78125 C 575.015625 231.902344 575.042969 231.847656 573.800781 232.882812 C 574.476562 233.875 574.902344 234.445312 576.015625 235.039062 C 576.644531 235.371094 577.351562 235.695312 578.125 235.828125 C 578.902344 235.960938 580.171875 236.085938 580.988281 235.960938 C 581.800781 235.835938 582.261719 235.605469 582.867188 235.042969 C 583.46875 234.484375 583.527344 233.683594 583.761719 233.046875 C 583.707031 233.65625 583.636719 234.433594 583.414062 234.878906 C 582.726562 236.222656 581.535156 236.621094 580.117188 236.625 C 578.757812 236.628906 577.074219 236.316406 575.804688 235.789062 C 574.792969 235.367188 573.113281 234.175781 572.714844 233.140625 C 572.441406 232.433594 572.660156 231.5625 572.628906 230.777344 C 574.03125 229.839844 574.378906 230.070312 576.039062 229.796875 C 576.734375 229.683594 577.210938 229.421875 577.871094 229.363281 Z M 569.703125 223.03125 C 569.742188 222.46875 569.804688 222.480469 569.855469 222.207031 C 568.578125 221.863281 568.066406 222.695312 567.316406 224.238281 C 567.035156 224.816406 567.3125 225.160156 567.011719 225.542969 C 566.710938 225.921875 566.226562 225.867188 565.742188 226.234375 C 565.253906 226.597656 564.769531 227.296875 564.3125 227.675781 C 563.378906 228.453125 562.113281 228.925781 561.027344 229.449219 C 561.769531 228.898438 563.207031 228.066406 563.671875 227.269531 C 563.917969 226.847656 563.882812 226.050781 564.265625 225.671875 C 564.652344 225.289062 564.785156 225.027344 565.28125 224.929688 C 565.777344 224.835938 565.578125 224.257812 565.738281 223.800781 C 565.898438 223.339844 566.214844 223.015625 566.554688 222.558594 C 566.894531 222.101562 567.324219 221.414062 567.992188 221.164062 C 568.660156 220.914062 569.707031 221.183594 570.210938 221.039062 C 570.71875 220.894531 570.429688 220.527344 570.796875 220.304688 C 571.164062 220.082031 571.882812 220.179688 572.375 219.941406 C 573.246094 219.523438 573.664062 218.820312 574.1875 218.066406 C 574.265625 219.6875 574.246094 220.851562 573.664062 222.375 C 573.011719 224.089844 572.351562 225.097656 570.496094 226.152344 C 569.859375 226.515625 569.222656 226.640625 568.691406 226.832031 C 569 226.410156 569.445312 226.226562 569.621094 225.566406 C 569.792969 224.902344 569.664062 223.589844 569.703125 223.03125 Z M 599.632812 230.921875 C 598.75 230.980469 598.542969 230.863281 597.835938 231.363281 C 598.21875 231.957031 598.601562 232.554688 598.980469 233.152344 C 598.949219 231.972656 599.0625 231.738281 599.632812 230.921875 Z M 597.320312 230.066406 C 598.542969 229.546875 599.605469 229.125 600.933594 229.039062 C 601.464844 229.007812 602.292969 229.089844 602.832031 229.113281 C 603.289062 228.4375 603.871094 227.902344 604.085938 227.132812 C 604.226562 226.621094 604.15625 224.246094 603.90625 223.628906 C 603.175781 221.832031 602.46875 221.757812 601.460938 220.730469 C 600.734375 219.984375 600.703125 218.847656 600.484375 217.574219 C 600.40625 217.109375 600.175781 216.515625 600.070312 216.035156 C 598.753906 215.8125 597.34375 215.738281 595.832031 215.8125 C 596.5625 215.109375 597.273438 214.464844 597.484375 213.40625 C 597.691406 212.347656 597.523438 211.046875 596.921875 210.097656 C 596.324219 209.148438 595.363281 208.320312 594.484375 207.546875 C 593.605469 206.773438 592.34375 206.136719 591.507812 205.503906 C 592.59375 205.113281 593.699219 204.542969 594.761719 204.335938 C 597.53125 203.796875 599.914062 204.621094 602.582031 206.238281 C 604.136719 207.179688 605.417969 208.074219 607.042969 209.777344 C 608.664062 211.480469 610.675781 214.605469 612.246094 216.457031 C 613.816406 218.3125 615.082031 219.777344 616.453125 220.878906 C 617.824219 221.984375 619.0625 222.300781 620.367188 223.011719 L 622.402344 225.175781 L 624.046875 223.132812 L 626.695312 223.433594 L 627.242188 220.453125 L 629.671875 219.785156 L 629.277344 215.765625 L 631.023438 214.523438 L 629.710938 212.023438 L 631.046875 209.289062 L 629.304688 206.167969 L 629.976562 203.160156 L 627.960938 201.4375 L 627.699219 198.242188 L 624.890625 197.167969 L 623.761719 194.386719 L 620.601562 194.351562 L 619.054688 192.289062 L 616.925781 192.4375 L 614.554688 192.179688 L 613.214844 191.1875 L 611.269531 192.480469 L 608.914062 191.25 L 604.234375 193.03125 L 607.285156 190.371094 L 610.449219 189.863281 L 612.867188 189.246094 L 616.140625 190.324219 L 619.019531 189.59375 L 621.792969 191.238281 L 624.730469 191.074219 L 626.171875 193.671875 L 629.097656 194.007812 L 630.679688 196.894531 L 632.519531 197.902344 L 633.007812 201.601562 L 634.644531 203.160156 L 633.925781 206.394531 L 635.855469 208.84375 L 634.046875 211.46875 L 635.980469 213.113281 L 633.507812 215.308594 L 636.011719 217.925781 L 632.988281 218.90625 L 634.957031 221.710938 L 632.484375 222.136719 L 634.105469 225.222656 L 631.320312 225.1875 L 632.722656 227.496094 L 629.667969 227.128906 L 630.398438 230.453125 L 628.089844 228.417969 L 627.300781 232.449219 L 625.707031 229.554688 L 624.84375 233.164062 L 622.878906 230.5 L 622.933594 234.285156 L 620.757812 230.882812 C 621.21875 232.8125 621.125 234.929688 622.390625 236.746094 C 626.308594 236.214844 628.867188 235.226562 631.867188 232.328125 C 634.601562 229.691406 637.871094 224.191406 638.753906 220.703125 C 639.765625 216.722656 639.796875 209.402344 638.800781 205.347656 C 637.84375 201.445312 636.601562 199.582031 634.378906 196.398438 C 632.253906 194.136719 630.164062 191.746094 627.46875 190.132812 C 623.511719 187.761719 618.4375 187.125 613.925781 187.1875 C 611.429688 187.222656 609.757812 187.703125 608.261719 188.246094 C 605.652344 189.199219 603.5625 191.277344 600.910156 192.300781 C 600.042969 192.636719 599.351562 192.648438 598.667969 192.28125 C 599.335938 193.621094 600.0625 194.222656 601.726562 194.710938 C 602.933594 195.0625 605.804688 194.839844 607.785156 194.65625 C 609.90625 194.460938 611.015625 193.824219 613.90625 193.867188 C 616.726562 193.90625 618.964844 194.980469 620.1875 195.679688 C 622.710938 197.128906 624.519531 198.734375 626.09375 201.277344 C 626.957031 202.671875 627.558594 204.246094 627.988281 205.855469 C 628.414062 207.464844 628.597656 209.265625 628.625 210.835938 C 628.652344 212.410156 628.535156 213.816406 628.148438 215.234375 C 627.253906 218.546875 625.269531 221.921875 621.203125 221.402344 C 618.710938 221.082031 614.960938 216.394531 613.703125 214.675781 C 611.164062 211.207031 608.554688 207.367188 605.367188 204.476562 C 603.425781 202.714844 600.765625 201.503906 598.152344 201.261719 C 593.25 200.8125 591.796875 201.746094 588.105469 204.796875 C 588.859375 205.035156 589.589844 205.167969 590.359375 205.515625 C 592.066406 206.289062 593.628906 207.285156 594.988281 208.5625 C 596.417969 209.902344 597.058594 210.753906 597.109375 212.671875 C 597.140625 213.945312 596.097656 214.96875 595.136719 215.886719 C 594.550781 216.453125 593.773438 216.964844 593.300781 217.402344 C 592.671875 217.984375 591.890625 218.617188 592.683594 219.542969 C 592.980469 219.890625 593.496094 220.152344 593.929688 220.476562 C 594.621094 220.988281 594.304688 222.902344 593.394531 223.410156 C 592.230469 224.058594 590.835938 223.984375 589.875 223.117188 C 591.089844 222.933594 591.859375 222.773438 591.828125 221.777344 C 591.808594 221.203125 591.078125 220.722656 590.363281 220.394531 C 588.632812 219.601562 587.324219 219.71875 585.601562 218.476562 C 583.863281 217.222656 583.824219 216.535156 583.351562 214.5625 C 582.515625 214.648438 581.742188 214.667969 580.621094 215.042969 C 579.5 215.414062 578.257812 216.300781 577.242188 216.519531 C 574.675781 217.074219 574.164062 216.910156 572.761719 216.542969 C 570.289062 215.902344 567.074219 217 563.875 218.027344 C 563.34375 218.195312 561.195312 218.03125 559.746094 218.542969 C 557.511719 219.328125 554.378906 221.230469 552.566406 222.761719 C 549.820312 225.078125 546.214844 232.015625 544.179688 239.980469 C 543.964844 242.398438 544.648438 244.03125 543.128906 245.214844 C 541.609375 246.394531 541.652344 249.425781 541.136719 250.273438 C 540.621094 251.125 540.023438 250.746094 538.914062 251.941406 C 537.804688 253.132812 537.238281 252.933594 537.265625 255.191406 C 538.222656 254.558594 539.617188 253.828125 540.84375 253.78125 C 541.925781 253.742188 541.9375 255.175781 544.722656 252.414062 C 546.210938 250.9375 549.066406 250.894531 551.050781 250.242188 C 553.035156 249.59375 556.609375 248.25 560.191406 244.234375 C 563.773438 240.222656 565.484375 235.996094 566.179688 229.882812 C 566.289062 230.96875 566.484375 232.191406 566.019531 235.179688 C 565.558594 238.167969 564.5625 241.523438 566.660156 245.542969 L 567.96875 248.046875 C 567.191406 246.980469 565.667969 245.242188 565.210938 244.003906 L 564.152344 241.144531 C 561.789062 244.867188 561.246094 245.53125 557.960938 248.199219 C 557.832031 249.855469 557.800781 251.578125 558.339844 253.164062 C 558.878906 254.746094 558.019531 256.570312 558.429688 257.613281 C 558.839844 258.65625 559.789062 258.0625 560.097656 259.117188 C 560.40625 260.175781 559.933594 262.261719 560.414062 263.289062 C 560.894531 264.320312 562.074219 263.695312 562.648438 264.027344 C 563.21875 264.359375 563.40625 264.816406 563.710938 265.253906 C 564.015625 265.6875 563.589844 266.722656 564.210938 267.058594 C 564.832031 267.394531 565.804688 267.109375 566.449219 267.429688 C 567.097656 267.753906 567.195312 268.527344 567.039062 269.222656 C 566.882812 269.914062 566.191406 270.234375 565.890625 270.9375 C 565.585938 271.644531 565.621094 272.132812 565.984375 272.78125 C 566.347656 273.429688 567.15625 273.785156 567.960938 274.113281 C 568.765625 274.441406 569.894531 274.257812 570.722656 274.710938 C 571.554688 275.160156 572.300781 276.0625 572.738281 276.71875 C 573.175781 277.371094 573.296875 277.832031 573.273438 278.523438 C 573.253906 279.210938 572.972656 280.003906 572.609375 280.667969 C 572.242188 281.332031 571.433594 282.140625 572.695312 283.410156 C 573.957031 284.679688 573.910156 284.132812 574.632812 284.957031 C 574.554688 283.53125 573.96875 282.371094 574.398438 281.300781 C 574.824219 280.226562 576.113281 280.039062 576.792969 279.558594 C 577.472656 279.074219 577.863281 278.414062 578.398438 277.839844 C 578.390625 278.578125 578.472656 279.371094 578.386719 279.925781 C 578.21875 281.050781 577.886719 282.054688 579.5625 282.234375 C 580.316406 282.316406 581.035156 281.824219 581.828125 281.53125 C 581.410156 282.277344 580.6875 282.878906 580.578125 283.773438 C 580.46875 284.667969 580.601562 285.648438 581.21875 286.539062 C 581.835938 287.425781 582.902344 288.082031 583.683594 288.605469 C 584.464844 289.125 584.882812 289.167969 585.484375 289.449219 C 585.515625 290.328125 585.339844 291.261719 585.441406 292.089844 C 585.539062 292.917969 585.800781 293.648438 586.277344 294.332031 C 586.757812 295.019531 587.523438 295.410156 588.246094 295.917969 C 587.847656 294.992188 587.046875 294.117188 587.058594 293.144531 C 587.066406 292.175781 587.359375 291.488281 588.300781 290.625 C 589.246094 289.761719 591.457031 289.015625 592.5 288.175781 C 593.542969 287.339844 593.878906 286.824219 594.253906 286.011719 C 594.628906 285.199219 594.523438 283.886719 594.59375 283.15625 C 594.9375 284.179688 594.988281 284.5 595.097656 285.570312 C 595.210938 286.644531 594.476562 288.148438 594.164062 288.941406 C 595.453125 288.316406 596.273438 287.316406 596.6875 286.339844 C 596.960938 286.503906 596.824219 286.957031 596.925781 287.824219 C 597.382812 287.367188 597.90625 287.015625 598.371094 286.582031 C 598.832031 286.148438 599.339844 285.769531 599.570312 285.164062 C 599.800781 284.558594 599.707031 283.917969 599.535156 283.214844 C 599.363281 282.515625 598.582031 281.699219 598.160156 280.933594 C 597.738281 280.167969 598.234375 279.414062 598.207031 278.488281 C 597.363281 278.34375 596.648438 277.914062 595.679688 278.050781 C 594.710938 278.191406 593.601562 279.28125 592.613281 279.296875 C 591.621094 279.308594 591.066406 278.378906 590.253906 278.121094 C 589.441406 277.867188 588.621094 277.894531 587.804688 277.78125 C 588.839844 276.789062 592.851562 276.316406 595.597656 275.867188 C 598.011719 275.472656 600.40625 275.242188 602.851562 275.207031 C 603.945312 275.191406 605.351562 275.554688 606.109375 275.335938 C 606.867188 275.117188 606.707031 274.597656 606.929688 274.035156 C 607.5625 272.453125 607.25 271.046875 606.90625 269.457031 C 604.710938 269.199219 602.421875 268.882812 600.210938 269.050781 C 598.046875 269.21875 595.484375 270.25 593.253906 270.320312 C 591.3125 270.378906 588.441406 269.945312 586.773438 268.929688 C 584.738281 267.683594 583.164062 265.011719 582.605469 264.152344 C 581.691406 262.753906 580.542969 260.011719 579.84375 258.757812 C 579.148438 257.503906 578.992188 257.15625 578.410156 256.632812 C 577.832031 256.109375 577.035156 256.066406 576.34375 255.785156 C 577.140625 255.867188 578.007812 255.613281 578.726562 256.03125 C 579.8125 256.652344 581.023438 259.238281 581.699219 260.363281 C 582.410156 257.960938 582.246094 257.015625 584.3125 255.660156 C 582.644531 257.535156 582.605469 258.953125 582.199219 261.15625 C 583.585938 263.4375 585.507812 267.070312 588.03125 268.078125 C 588.941406 268.441406 590.503906 268.667969 591.488281 268.792969 C 594.550781 269.171875 597.503906 268.199219 600.511719 267.453125 C 602.710938 266.910156 604.941406 267.128906 607.613281 267.285156 C 608.523438 267.339844 610.664062 266.792969 611.105469 265.871094 C 611.34375 265.375 611.328125 264.777344 610.984375 264.246094 C 610.640625 263.71875 609.722656 263.460938 609.230469 262.984375 C 608.742188 262.507812 608.457031 261.945312 608.070312 261.421875 C 606.027344 261.816406 604.347656 261.964844 602.832031 262.007812 C 603.917969 261.558594 604.964844 261.300781 606.09375 260.859375 C 607.226562 260.414062 608.511719 259.6875 609.425781 259.082031 C 610.339844 258.476562 610.921875 258.125 611.582031 257.421875 C 612.242188 256.71875 613.089844 255.992188 613.578125 255.132812 C 614.0625 254.269531 614.140625 253.308594 614.167969 252.242188 C 614.195312 251.179688 614.148438 249.683594 613.738281 248.828125 C 613.328125 247.96875 612.539062 247.707031 611.90625 247.503906 C 611.273438 247.300781 610.839844 247.816406 610.179688 247.886719 C 609.519531 247.953125 608.902344 248.371094 607.949219 247.921875 C 606.996094 247.472656 605.863281 246.554688 604.898438 245.195312 C 603.9375 243.835938 603.246094 241.617188 602.261719 239.90625 C 600.570312 236.960938 598.457031 234.207031 596.4375 231.476562 C 596.273438 230.804688 596.023438 229.875 595.9375 228.960938 C 595.792969 227.367188 595.765625 225.714844 596.257812 224.164062 C 596.636719 222.976562 597.1875 221.71875 598.425781 221.234375 C 598.921875 221.039062 599.550781 220.960938 599.996094 221.125 C 600.4375 221.289062 600.875 221.792969 600.699219 222.375 C 600.507812 223.011719 600.066406 223.027344 599.769531 223.351562 C 599.257812 223.898438 599.054688 224.300781 598.863281 224.980469 C 599.414062 224.972656 600.15625 224.929688 600.609375 225.050781 C 601.195312 225.203125 601.746094 225.597656 602.042969 226.433594 C 601.339844 225.808594 600.992188 225.519531 600.113281 225.5 C 599.710938 225.488281 599.222656 225.632812 598.777344 225.699219 C 598.613281 226.242188 598.515625 226.90625 598.28125 227.328125 C 598.046875 227.746094 597.589844 227.644531 597.417969 228.136719 C 597.246094 228.625 597.234375 229.421875 597.320312 230.066406 Z M 603.464844 229.332031 C 603.734375 229.4375 603.835938 229.460938 604.175781 229.722656 C 604.519531 229.980469 604.988281 230.242188 605.257812 230.863281 C 605.53125 231.484375 605.515625 232.449219 605.460938 232.839844 C 605.222656 232.769531 604.898438 232.816406 604.652344 232.605469 C 604.40625 232.394531 604.261719 231.917969 603.945312 231.714844 C 603.632812 231.507812 603.367188 231.554688 603.019531 231.507812 C 603.199219 232.019531 603.285156 232.53125 603.203125 232.992188 C 603.023438 234.003906 602.429688 234.515625 601.472656 234.636719 C 601.054688 234.6875 600.386719 234.550781 600.023438 234.484375 C 600.191406 234.863281 600.480469 235.191406 600.648438 235.570312 C 601.457031 235.453125 602.058594 235.46875 602.496094 235.265625 C 602.929688 235.0625 603.398438 234.601562 603.957031 234.410156 C 604.519531 234.214844 605.015625 234.21875 605.628906 234.121094 C 605.148438 234.539062 604.832031 234.957031 604.347656 235.375 C 604.703125 236.402344 605.054688 237.433594 605.410156 238.460938 C 606.15625 238.933594 606.859375 239.179688 607.804688 239.757812 C 608.746094 240.339844 609.878906 241.378906 611.109375 241.945312 C 612.339844 242.511719 613.070312 242.820312 614.355469 243.0625 C 615.640625 243.304688 616.660156 244.347656 617.925781 244.515625 C 619.1875 244.6875 621.550781 244.722656 622.523438 244.625 C 623.628906 244.515625 625.066406 243.945312 625.195312 242.730469 C 624.269531 242.957031 622.851562 242.753906 622.136719 241.003906 C 621.820312 240.226562 621.976562 238.796875 621.488281 237.878906 C 621.003906 236.957031 620.328125 236.664062 619.519531 235.53125 C 618.707031 234.398438 617.386719 232.613281 616.640625 231.097656 C 615.898438 229.578125 615.726562 227.863281 615.097656 226.503906 C 614.46875 225.144531 613.519531 224.046875 612.789062 222.996094 C 611.183594 220.707031 609.890625 219.144531 607.25 217.988281 C 605.980469 217.433594 604.53125 217.285156 603.175781 216.933594 C 602.621094 217.183594 601.863281 217.457031 601.730469 218.105469 C 601.59375 218.753906 601.851562 219.710938 602.324219 220.199219 C 603.109375 221.011719 604.269531 221.890625 604.730469 223.183594 C 605.023438 224.015625 605.109375 226.796875 604.851562 227.550781 C 604.589844 228.335938 603.976562 228.808594 603.464844 229.332031 Z M 603.71875 235.917969 C 603.476562 236.128906 603.289062 236.347656 602.894531 236.523438 C 602.5 236.699219 601.960938 236.746094 601.4375 236.875 C 602.171875 238.023438 602.941406 239.179688 603.644531 240.382812 C 604.347656 241.589844 604.957031 242.90625 605.628906 244.167969 C 605.597656 243.445312 605.640625 242.675781 605.535156 242 C 605.429688 241.324219 605.125 240.734375 604.824219 239.71875 C 604.519531 238.707031 604.148438 237.328125 603.71875 235.917969 Z M 583.976562 210.730469 C 583.871094 211.855469 584.0625 213.617188 584.296875 214.71875 C 584.574219 216.042969 584.84375 216.726562 585.910156 217.523438 C 587.867188 218.980469 589.117188 218.734375 590.625 219.578125 C 591.339844 219.980469 592.246094 220.652344 592.511719 221.367188 C 592.777344 222.078125 592.335938 222.851562 591.792969 223.15625 C 592.746094 223.296875 593.808594 222.222656 593.367188 221.121094 C 593.144531 220.578125 592.105469 220.335938 591.785156 219.789062 C 591.464844 219.242188 591.464844 218.675781 591.617188 218.121094 C 591.886719 217.117188 593.867188 216.207031 594.5625 215.414062 C 595.640625 214.195312 596.050781 213.175781 595.445312 211.605469 C 594.589844 209.398438 591.285156 207.628906 589.304688 206.765625 C 588.402344 206.367188 587.894531 206.339844 587.1875 206.128906 C 588.632812 206.976562 590.15625 207.65625 590.890625 209.554688 C 591.5 211.140625 590.972656 211.738281 590.992188 213.121094 C 591 213.761719 591.84375 214.082031 592.214844 214.488281 C 592.539062 214.839844 592.515625 215.097656 592.253906 215.585938 C 592.226562 215.148438 592.039062 214.820312 591.703125 214.582031 C 591.148438 214.1875 590.554688 214.273438 590.257812 213.464844 C 589.8125 212.238281 590.699219 211.078125 589.699219 209.699219 C 588.953125 208.667969 587.960938 207.515625 586.621094 207.484375 C 585.988281 207.46875 585.511719 207.566406 584.832031 207.765625 L 583.929688 206.675781 L 583.910156 206.664062 C 582.074219 204.980469 580.816406 203.597656 578.238281 202.441406 C 575.664062 201.285156 574.394531 201.113281 571.441406 201.175781 C 568.484375 201.242188 565.554688 201.492188 562.132812 204.449219 C 558.710938 207.410156 549.894531 218.738281 547.753906 220.175781 C 545.617188 221.609375 545.144531 222.09375 542.472656 222.09375 C 539.800781 222.09375 535.628906 218.304688 535.464844 213.566406 C 535.300781 208.832031 535.234375 207.148438 538.519531 201.441406 C 541.804688 195.734375 547.75 193.980469 552.164062 193.390625 C 556.578125 192.796875 559.230469 194.355469 562.496094 194.363281 C 565.761719 194.371094 568.988281 193.804688 569.9375 191.203125 C 569.472656 191.480469 568.847656 191.792969 567.09375 191.703125 C 565.339844 191.609375 562.90625 189.570312 560.171875 188.207031 C 557.433594 186.84375 554.390625 186.683594 550.484375 186.609375 C 546.578125 186.535156 541.703125 186.835938 536.875 189.449219 C 532.046875 192.0625 528.75 194.835938 525.953125 199.953125 C 523.152344 205.070312 522.734375 209.246094 523.183594 215.441406 C 523.636719 221.636719 525.539062 226.242188 529.207031 230.777344 C 532.875 235.3125 536.542969 237.53125 543.152344 238.355469 L 544.542969 232.199219 L 542.058594 235.773438 L 542.121094 231.796875 L 539.875 234.59375 L 538.890625 230.800781 L 537.070312 233.839844 L 536.164062 229.605469 L 533.527344 231.746094 L 534.363281 228.253906 L 530.871094 228.640625 L 532.472656 226.210938 L 529.292969 226.25 L 531.144531 223.007812 L 528.320312 222.558594 L 530.570312 219.609375 L 527.113281 218.582031 L 529.976562 215.832031 L 527.148438 213.523438 L 529.359375 211.800781 L 527.292969 209.039062 L 529.5 206.464844 L 528.675781 203.066406 L 530.546875 201.429688 L 531.105469 197.542969 L 533.207031 196.484375 L 535.015625 193.453125 L 538.355469 193.097656 L 540.003906 190.367188 L 543.363281 190.539062 L 546.535156 188.808594 L 549.824219 189.578125 L 553.558594 188.445312 L 556.328125 189.097656 L 559.941406 189.628906 L 563.425781 192.425781 L 558.078125 190.554688 L 555.386719 191.847656 L 553.164062 190.484375 L 551.632812 191.527344 L 548.921875 191.800781 L 546.492188 191.644531 L 544.722656 193.8125 L 541.109375 193.847656 L 539.824219 196.769531 L 536.613281 197.898438 L 536.3125 201.257812 L 534.011719 203.066406 L 534.777344 206.226562 L 532.789062 209.507812 L 534.3125 212.378906 L 532.8125 215.007812 L 534.808594 216.3125 L 534.355469 220.535156 L 537.132812 221.238281 L 537.761719 224.371094 L 540.785156 224.054688 L 542.667969 226.199219 L 544.992188 223.925781 C 549.226562 221.804688 550.972656 220.621094 554.273438 217.039062 C 558.03125 212.960938 560.1875 209.191406 565.195312 206.402344 C 568.785156 204.398438 571.714844 203.679688 575.746094 204.378906 C 579.535156 205.035156 580.800781 207.3125 583.589844 209.710938 C 583.886719 209.175781 583.945312 209.035156 584.433594 208.636719 C 584.28125 209.335938 584.039062 210.058594 583.976562 210.730469 Z M 583.976562 210.730469 " fill-opacity="1" fill-rule="evenodd"/></g><g clip-path="url(#8b0ac92fbd)"><path stroke-linecap="round" transform="matrix(0.498691, 0, 0, 0.497584, 536.617995, 397.198272)" fill-opacity="1" fill="#d10000" fill-rule="nonzero" stroke-linejoin="round" d="M 112.002522 134.997861 C 115.997354 171.996927 150.00043 173.001782 165.000635 176.99765 C 208.998625 186.00209 187.003546 202.998267 169.0033 202.998267 L 169.998092 205.99713 L 132.000184 207.001985 L 163.003218 189.000954 L 166.003259 197.00054 C 171.000717 199.002399 204.001168 186.999095 151.003054 181.998372 C 129.000143 178.002504 115.002563 173.001782 106.997231 163.000337 L 79.996862 178.999509 C 73.001989 163.000337 52.001702 157.00261 61.001825 136.002715 " stroke="#000000" stroke-width="1" stroke-opacity="1" stroke-miterlimit="4"/></g><path fill="#ffd700" d="M 589.480469 475.320312 C 590.476562 475.816406 591.972656 473.828125 591.472656 472.832031 L 555.070312 445.960938 C 555.070312 444.46875 558.558594 441.484375 553.574219 437.503906 L 554.070312 436.507812 L 547.589844 433.523438 C 548.585938 435.511719 549.582031 436.011719 550.582031 439.492188 L 552.574219 438.496094 C 554.570312 440.984375 554.570312 442.976562 552.574219 443.972656 L 549.085938 441.484375 C 549.085938 440.984375 549.582031 440.488281 549.582031 439.992188 C 549.582031 439.992188 549.085938 439.492188 547.589844 439.492188 C 546.59375 439.492188 544.597656 437.503906 543.101562 437.503906 C 543.101562 438.996094 545.59375 441.484375 545.59375 443.972656 L 547.089844 442.976562 C 548.585938 443.472656 549.582031 444.46875 550.582031 445.960938 C 549.085938 447.953125 547.089844 448.945312 543.101562 446.957031 C 543.101562 445.960938 544.097656 445.464844 544.097656 444.46875 C 542.105469 444.46875 539.609375 442.976562 537.117188 441.484375 C 538.113281 444.964844 541.105469 448.945312 544.097656 449.941406 C 549.085938 451.933594 551.078125 448.449219 553.574219 448.449219 Z M 589.480469 475.320312 " fill-opacity="1" fill-rule="nonzero"/><g clip-path="url(#bad1e8d681)"><path stroke-linecap="round" transform="matrix(0.498691, 0, 0, 0.497584, 536.617995, 397.198272)" fill="none" stroke-linejoin="round" d="M 106.00244 157.00261 C 107.999856 157.999614 110.999897 154.003746 109.997272 152.001887 L 37.001497 97.998794 C 37.001497 94.99993 43.99637 89.002204 34.001456 81.002618 L 34.996248 79.000758 L 22.001292 73.003032 C 23.998708 76.998899 25.996125 78.003754 28.001374 84.998485 L 31.996207 82.996626 C 35.998872 87.997349 35.998872 92.001067 31.996207 94.002926 L 25.001333 89.002204 C 25.001333 87.997349 25.996125 87.000344 25.996125 86.00334 C 25.996125 86.00334 25.001333 84.998485 22.001292 84.998485 C 20.003876 84.998485 16.00121 81.002618 13.001169 81.002618 C 13.001169 84.001481 17.998626 89.002204 17.998626 94.002926 L 20.998667 92.001067 C 23.998708 92.998071 25.996125 94.99993 28.001374 97.998794 C 25.001333 102.002512 20.998667 103.996521 13.001169 100.000653 C 13.001169 97.998794 14.998585 97.00179 14.998585 94.99993 C 11.003753 94.99993 5.998462 92.001067 1.001005 89.002204 C 2.998421 95.996935 8.998503 103.996521 14.998585 105.99838 C 25.001333 110.002098 28.996166 102.999516 34.001456 102.999516 Z M 106.00244 157.00261 " stroke="#000000" stroke-width="1" stroke-opacity="1" stroke-miterlimit="4"/></g><path fill="#d10000" d="M 575.515625 442.976562 L 560.554688 424.566406 C 561.550781 422.078125 561.054688 418.59375 560.554688 417.101562 C 558.0625 408.890625 563.546875 405.160156 568.535156 401.179688 C 572.523438 398.195312 574.519531 397.695312 575.515625 398.195312 C 576.511719 399.1875 571.527344 402.175781 570.527344 405.65625 C 570.527344 405.65625 569.53125 411.128906 573.023438 408.644531 C 576.015625 407.148438 580.003906 406.15625 584.492188 407.148438 C 587.984375 407.648438 593.46875 409.636719 596.960938 413.617188 C 607.433594 411.628906 601.449219 405.160156 600.449219 401.179688 C 603.941406 398.195312 622.144531 416.605469 599.953125 428.546875 C 599.953125 435.511719 598.457031 439.992188 593.96875 443.972656 C 588.480469 448.449219 591.972656 450.441406 592.96875 453.425781 C 595.464844 461.882812 594.464844 467.359375 584.492188 468.851562 C 577.511719 469.84375 576.511719 472.832031 571.027344 468.851562 " fill-opacity="1" fill-rule="nonzero"/><g clip-path="url(#5d1ec8a7b3)"><path stroke-linecap="round" transform="matrix(0.498691, 0, 0, 0.497584, 536.617995, 397.198272)" fill="none" stroke-linejoin="round" d="M 77.999446 92.001067 L 47.999036 55.002 C 49.996452 50.001278 49.001661 42.998696 47.999036 39.999833 C 43.001579 23.498233 53.999118 16.001075 64.001866 8.001489 C 71.999364 2.003762 76.00203 0.998907 77.999446 2.003762 C 79.996862 3.99777 70.001948 10.003348 67.996698 16.998079 C 67.996698 16.998079 65.999282 27.996528 73.001989 23.003656 C 79.002071 19.996942 86.999569 18.002934 95.999692 19.996942 C 103.002399 21.001797 113.999938 24.997665 121.002645 32.997251 C 142.002931 29.001383 130.002768 16.001075 127.997518 8.001489 C 135.000225 2.003762 171.502029 39.002828 127.002727 63.001586 C 127.002727 76.998899 124.002686 86.00334 115.002563 94.002926 C 103.99719 102.999516 110.999897 107.003235 112.997313 113.000962 C 118.002604 129.997138 115.997354 141.003438 95.999692 144.002301 C 82.002112 145.99631 79.996862 152.001887 68.999323 144.002301 " stroke="#000000" stroke-width="1" stroke-opacity="1" stroke-miterlimit="4"/></g><path stroke-linecap="round" transform="matrix(0.498691, 0, 0, 0.497584, 536.617995, 397.198272)" fill-opacity="1" fill="#d10000" fill-rule="nonzero" stroke-linejoin="round" d="M 73.001989 32.000247 C 73.99678 27.996528 64.001866 21.001797 52.996493 42.001692 C 52.001702 45.000555 47.999036 53.000141 47.999036 53.000141 C 46.996411 57.00386 46.00162 61.996732 43.99637 63.998591 C 34.001456 74.000036 38.998913 87.000344 52.001702 92.001067 C 55.001743 92.998071 64.001866 100.000653 70.001948 102.999516 C 73.001989 105.001376 70.001948 111.996107 64.996657 110.999102 C 37.996289 105.001376 37.001497 123.999411 47.999036 126.998275 L 86.999569 124.996415 " stroke="#000000" stroke-width="1" stroke-opacity="1" stroke-miterlimit="4"/><path stroke-linecap="round" transform="matrix(0.498691, 0, 0, 0.497584, 536.617995, 397.198272)" fill="none" stroke-linejoin="round" d="M 79.002071 31.003242 C 82.996903 26.999524 89.99961 26.999524 92.999651 32.997251 C 94.002276 34.99911 94.002276 37.000969 94.997067 37.997974 " stroke="#000000" stroke-width="1" stroke-opacity="1" stroke-miterlimit="4"/><path stroke-linecap="round" transform="matrix(0.498691, 0, 0, 0.497584, 536.617995, 397.198272)" fill-opacity="1" fill="#d10000" fill-rule="nonzero" stroke-linejoin="round" d="M 49.996452 84.998485 C 55.001743 86.00334 55.001743 89.002204 61.001825 94.002926 C 70.996739 102.002512 82.996903 94.99993 85.996944 92.998071 C 89.99961 90.996212 89.99961 87.997349 94.002276 89.999208 " stroke="#000000" stroke-width="1.5" stroke-opacity="1" stroke-miterlimit="4"/><path stroke-linecap="round" transform="matrix(0.498691, 0, 0, 0.497584, 536.617995, 397.198272)" fill-opacity="1" fill="#d10000" fill-rule="nonzero" stroke-linejoin="round" d="M 62.999241 71.001172 C 50.999077 63.998591 47.999036 74.99704 52.996493 79.997763 C 53.999118 81.002618 56.999159 81.002618 58.996575 81.999622 C 61.001825 82.996626 61.996616 79.000758 67.001907 81.497195 C 70.996739 84.001481 73.001989 79.000758 68.999323 76.998899 " stroke="#000000" stroke-width="1" stroke-opacity="1" stroke-miterlimit="4"/><path stroke-linecap="round" transform="matrix(0.498691, 0, 0, 0.497584, 536.617995, 397.198272)" fill-opacity="1" fill="#ffffff" fill-rule="nonzero" stroke-linejoin="round" d="M 70.001948 37.000969 C 70.001948 34.002106 64.001866 32.000247 56.999159 42.998696 C 49.001661 55.999005 49.996452 63.001586 53.999118 66.00045 C 56.999159 68.002309 59.9992 66.997454 62.999241 58.000864 C 64.996657 53.000141 70.001948 39.999833 70.001948 37.000969 Z M 70.001948 37.000969 " stroke="#000000" stroke-width="1" stroke-opacity="1" stroke-miterlimit="4"/><path stroke-linecap="round" transform="matrix(0.498691, 0, 0, 0.497584, 536.617995, 397.198272)" fill-opacity="1" fill="#ffffff" fill-rule="nonzero" stroke-linejoin="round" d="M 82.002112 35.996114 C 91.997026 34.002106 91.002235 71.001172 74.999405 71.998177 C 56.999159 73.003032 68.999323 39.002828 82.002112 35.996114 Z M 82.002112 35.996114 " stroke="#000000" stroke-width="1" stroke-opacity="1" stroke-miterlimit="4"/><path fill="#000000" d="M 575.015625 424.066406 C 577.511719 426.058594 574.519531 434.019531 571.027344 431.035156 C 568.535156 428.546875 572.023438 421.578125 575.015625 424.066406 Z M 575.015625 424.066406 " fill-opacity="1" fill-rule="nonzero"/><path fill="#000000" d="M 566.539062 423.074219 C 569.03125 425.0625 565.042969 431.53125 563.546875 428.546875 C 562.050781 426.554688 563.546875 421.082031 566.539062 423.074219 Z M 566.539062 423.074219 " fill-opacity="1" fill-rule="nonzero"/><path fill="#ffffff" d="M 565.042969 423.570312 C 565.542969 423.570312 565.542969 426.554688 565.042969 426.554688 C 563.546875 426.554688 564.046875 423.570312 565.042969 423.570312 Z M 565.042969 423.570312 " fill-opacity="1" fill-rule="nonzero"/><path fill="#ffffff" d="M 573.023438 425.5625 C 573.519531 425.5625 573.519531 427.550781 572.523438 427.550781 C 572.023438 427.550781 571.527344 425.5625 573.023438 425.5625 Z M 573.023438 425.5625 " fill-opacity="1" fill-rule="nonzero"/><path stroke-linecap="round" transform="matrix(0.498691, 0, 0, 0.497584, 536.617995, 397.198272)" fill-opacity="1" fill="#d10000" fill-rule="nonzero" stroke-linejoin="round" d="M 74.999405 144.002301 C 70.001948 144.002301 67.001907 144.999306 61.001825 137.996724 " stroke="#000000" stroke-width="1" stroke-opacity="1" stroke-miterlimit="4"/><path stroke-linecap="round" transform="matrix(0.498691, 0, 0, 0.497584, 536.617995, 397.198272)" fill-opacity="1" fill="#d10000" fill-rule="nonzero" stroke-linejoin="round" d="M 70.001948 137.996724 C 43.99637 139.998583 64.001866 102.999516 83.999528 118.998689 C 88.002194 121.997552 91.997026 123.002407 97.997108 121.000548 " stroke="#000000" stroke-width="1" stroke-opacity="1" stroke-miterlimit="4"/><path stroke-linecap="round" transform="matrix(0.498691, 0, 0, 0.497584, 536.617995, 397.198272)" fill-opacity="1" fill="#d10000" fill-rule="nonzero" stroke-linejoin="round" d="M 65.999282 120.003543 C 68.999323 124.996415 58.996575 133.003852 52.996493 128.003129 C 46.996411 123.002407 62.999241 115.999825 65.999282 120.003543 Z M 65.999282 120.003543 " stroke="#000000" stroke-width="1" stroke-opacity="1" stroke-miterlimit="4"/><path stroke-linecap="round" transform="matrix(0.498691, 0, 0, 0.497584, 536.617995, 397.198272)" fill-opacity="1" fill="#d10000" fill-rule="nonzero" stroke-linejoin="round" d="M 59.9992 110.002098 C 37.001497 107.003235 37.996289 123.999411 47.999036 126.998275 C 58.996575 129.997138 70.996739 113.997966 59.9992 110.002098 Z M 59.9992 110.002098 " stroke="#000000" stroke-width="1" stroke-opacity="1" stroke-miterlimit="4"/><path stroke-linecap="round" transform="matrix(0.498691, 0, 0, 0.497584, 536.617995, 397.198272)" fill-opacity="1" fill="#d10000" fill-rule="nonzero" stroke-linejoin="round" d="M 53.999118 115.002821 C 55.001743 121.997552 40.001538 126.00127 37.001497 115.999825 C 34.996248 108.997243 52.001702 99.003649 53.999118 115.002821 Z M 53.999118 115.002821 " stroke="#000000" stroke-width="1" stroke-opacity="1" stroke-miterlimit="4"/><path stroke-linecap="round" transform="matrix(0.498691, 0, 0, 0.497584, 536.617995, 397.198272)" fill-opacity="1" fill="#d10000" fill-rule="nonzero" stroke-linejoin="round" d="M 56.999159 100.997657 C 62.999241 108.997243 47.999036 113.000962 43.99637 108.000239 C 35.998872 99.003649 52.001702 94.99993 56.999159 100.997657 Z M 56.999159 100.997657 " stroke="#000000" stroke-width="1" stroke-opacity="1" stroke-miterlimit="4"/><path stroke-linecap="round" transform="matrix(0.498691, 0, 0, 0.497584, 536.617995, 397.198272)" fill-opacity="1" fill="#00b000" fill-rule="nonzero" stroke-linejoin="round" d="M 35.998872 176.000645 C 49.001661 175.003641 70.996739 175.003641 64.996657 165.002196 C 62.999241 162.003332 64.001866 160.001473 64.001866 157.999614 C 65.999282 165.9992 82.002112 160.998478 80.999487 170.999923 L 61.996616 197.00054 Z M 35.998872 176.000645 " stroke="#000000" stroke-width="1" stroke-opacity="1" stroke-miterlimit="4"/><path stroke-linecap="round" transform="matrix(0.498691, 0, 0, 0.497584, 536.617995, 397.198272)" fill-opacity="1" fill="#00b000" fill-rule="nonzero" stroke-linejoin="round" d="M 94.002276 165.9992 C 97.997108 163.997341 101.999774 165.9992 106.00244 163.000337 C 112.997313 170.002918 112.997313 179.996513 115.002563 181.998372 L 80.999487 196.003536 L 58.996575 184.997236 C 68.999323 173.001782 79.996862 178.002504 80.999487 170.999923 C 82.996903 158.996619 88.996985 162.003332 94.002276 166.996205 C 94.002276 166.996205 94.997067 176.99765 91.997026 176.99765 C 85.002153 178.002504 70.001948 184.000231 70.001948 184.000231 " stroke="#000000" stroke-width="1" stroke-opacity="1" stroke-miterlimit="4"/><path stroke-linecap="round" transform="matrix(0.498691, 0, 0, 0.497584, 536.617995, 397.198272)" fill-opacity="1" fill="#ffffff" fill-rule="nonzero" stroke-linejoin="round" d="M 19.001251 181.001368 C 20.998667 178.002504 49.001661 170.002918 49.001661 181.998372 L 31.996207 191.002813 Z M 19.001251 181.001368 " stroke="#000000" stroke-width="1" stroke-opacity="1" stroke-miterlimit="4"/><path stroke-linecap="round" transform="matrix(0.498691, 0, 0, 0.497584, 536.617995, 397.198272)" fill-opacity="1" fill="#f4fff4" fill-rule="nonzero" stroke-linejoin="round" d="M 107.999856 173.001782 C 107.999856 179.996513 101.999774 178.999509 100.997149 176.000645 C 98.999733 168.998064 107.999856 168.001059 107.999856 173.001782 Z M 107.999856 173.001782 " stroke="#000000" stroke-width="1" stroke-opacity="1" stroke-miterlimit="4"/><path stroke-linecap="round" transform="matrix(0.498691, 0, 0, 0.497584, 536.617995, 397.198272)" fill-opacity="1" fill="#ffffff" fill-rule="nonzero" stroke-linejoin="round" d="M 41.998954 191.002813 C 17.003835 194.001676 17.003835 186.999095 17.003835 186.999095 C 17.003835 181.998372 17.003835 181.998372 19.001251 181.001368 C 22.001292 184.997236 38.998913 186.999095 46.996411 183.003227 " stroke="#000000" stroke-width="1" stroke-opacity="1" stroke-miterlimit="4"/><path stroke-linecap="round" transform="matrix(0.498691, 0, 0, 0.497584, 536.617995, 397.198272)" fill-opacity="1" fill="#ffffff" fill-rule="nonzero" stroke-linejoin="round" d="M 77.999446 191.999817 C 77.999446 173.998786 49.001661 176.000645 43.001579 186.999095 L 55.996534 197.00054 Z M 77.999446 191.999817 " stroke="#000000" stroke-width="1" stroke-opacity="1" stroke-miterlimit="4"/><path stroke-linecap="round" transform="matrix(0.498691, 0, 0, 0.497584, 536.617995, 397.198272)" fill-opacity="1" fill="#ffffff" fill-rule="nonzero" stroke-linejoin="round" d="M 113.999938 181.001368 C 115.997354 179.996513 115.002563 184.000231 115.002563 187.996099 C 94.997067 200.996408 52.996493 202.001263 41.998954 192.996822 C 41.998954 189.000954 41.998954 187.996099 43.001579 186.00209 C 49.001661 196.003536 106.00244 191.999817 113.999938 181.001368 Z M 113.999938 181.001368 " stroke="#000000" stroke-width="1" stroke-opacity="1" stroke-miterlimit="4"/><path stroke-linecap="round" transform="matrix(0.498691, 0, 0, 0.497584, 536.617995, 397.198272)" fill-opacity="1" fill="#d10000" fill-rule="nonzero" stroke-linejoin="round" d="M 67.001907 168.998064 L 76.996821 170.002918 M 64.996657 171.996927 L 74.999405 173.998786 M 59.9992 173.998786 L 67.996698 176.000645 M 52.001702 176.000645 L 64.001866 178.002504 M 82.002112 170.002918 L 94.002276 170.999923 M 80.999487 173.001782 L 92.999651 175.003641 M 76.996821 176.000645 L 83.999528 176.99765 M 70.996739 178.002504 L 79.002071 178.999509 " stroke="#00ffff" stroke-width="1" stroke-opacity="1" stroke-miterlimit="4"/><g clip-path="url(#51983eac7d)"><path fill="#000000" d="M 782.121094 425.472656 C 782.121094 425.472656 824.691406 371.152344 824.691406 371.152344 C 824.691406 371.152344 782.121094 313.777344 782.121094 313.777344 L 809.652344 313.777344 C 809.652344 313.777344 843.75 360.203125 843.75 360.203125 L 791.851562 425.472656 Z M 831.417969 379.425781 L 883.300781 313.777344 C 883.300781 313.777344 893.304688 313.777344 893.304688 313.777344 L 850.722656 367.644531 C 850.722656 367.644531 893.304688 425.472656 893.304688 425.472656 L 865.773438 425.472656 C 865.773438 425.472656 831.417969 379.425781 831.417969 379.425781 Z M 831.417969 379.425781 " fill-opacity="1" fill-rule="nonzero"/></g><g fill="#ffffff" fill-opacity="1"><g transform="translate(544.817619, 343.642048)"><g><path d="M 12.28125 0.328125 C 10.320312 0.328125 8.59375 -0.113281 7.09375 -1 C 5.601562 -1.894531 4.4375 -3.242188 3.59375 -5.046875 C 2.75 -6.847656 2.328125 -9.054688 2.328125 -11.671875 C 2.328125 -14.285156 2.773438 -16.492188 3.671875 -18.296875 C 4.578125 -20.097656 5.828125 -21.445312 7.421875 -22.34375 C 9.023438 -23.238281 10.867188 -23.6875 12.953125 -23.6875 C 15.179688 -23.6875 17.015625 -23.28125 18.453125 -22.46875 C 19.890625 -21.664062 20.910156 -20.46875 21.515625 -18.875 L 19.71875 -17.828125 L 19.328125 -17.828125 C 18.710938 -19.035156 17.890625 -19.898438 16.859375 -20.421875 C 15.828125 -20.953125 14.523438 -21.21875 12.953125 -21.21875 C 7.828125 -21.21875 5.265625 -18.035156 5.265625 -11.671875 C 5.265625 -8.359375 5.910156 -5.941406 7.203125 -4.421875 C 8.492188 -2.898438 10.296875 -2.140625 12.609375 -2.140625 C 14.742188 -2.140625 16.335938 -2.625 17.390625 -3.59375 C 18.453125 -4.5625 18.984375 -6.085938 18.984375 -8.171875 L 18.984375 -10.234375 L 12.34375 -10.234375 L 12.34375 -12.4375 L 21.65625 -12.4375 L 21.65625 0 L 19.109375 0 L 19.109375 -3.125 L 18.78125 -3.203125 C 18.164062 -2.003906 17.304688 -1.113281 16.203125 -0.53125 C 15.097656 0.0390625 13.789062 0.328125 12.28125 0.328125 Z M 12.28125 0.328125 "/></g></g></g><g fill="#ffffff" fill-opacity="1"><g transform="translate(569.092914, 343.642048)"><g><path d="M 6.21875 0 L 3.53125 0 L 3.53125 -23.34375 L 6.890625 -23.34375 L 18.28125 -5.515625 L 18.6875 -5.578125 L 18.6875 -23.34375 L 21.34375 -23.34375 L 21.34375 0 L 18.46875 0 L 6.609375 -19.078125 L 6.21875 -19.015625 Z M 6.21875 0 "/></g></g></g><g fill="#ffffff" fill-opacity="1"><g transform="translate(593.991064, 343.642048)"><g><path d="M 12.046875 0.328125 C 9.179688 0.328125 7.015625 -0.394531 5.546875 -1.84375 C 4.078125 -3.300781 3.34375 -5.453125 3.34375 -8.296875 L 3.34375 -23.34375 L 6.0625 -23.34375 L 6.0625 -8.328125 C 6.0625 -6.285156 6.550781 -4.753906 7.53125 -3.734375 C 8.519531 -2.710938 10.023438 -2.203125 12.046875 -2.203125 C 16.023438 -2.203125 18.015625 -4.242188 18.015625 -8.328125 L 18.015625 -23.34375 L 20.75 -23.34375 L 20.75 -8.296875 C 20.75 -5.453125 20.007812 -3.300781 18.53125 -1.84375 C 17.0625 -0.394531 14.898438 0.328125 12.046875 0.328125 Z M 12.046875 0.328125 "/></g></g></g><g fill="#ffffff" fill-opacity="1"><g transform="translate(536.617995, 555.576388)"><g><path d="M 4.03125 0 L 4.03125 -26.65625 L 14.125 -26.65625 C 15.769531 -26.65625 17.160156 -26.394531 18.296875 -25.875 C 19.441406 -25.351562 20.300781 -24.609375 20.875 -23.640625 C 21.457031 -22.671875 21.75 -21.519531 21.75 -20.1875 C 21.75 -19.03125 21.4375 -17.984375 20.8125 -17.046875 C 20.1875 -16.109375 19.289062 -15.378906 18.125 -14.859375 L 18.125 -14.484375 C 19.894531 -14.046875 21.238281 -13.25 22.15625 -12.09375 C 23.082031 -10.9375 23.546875 -9.484375 23.546875 -7.734375 C 23.546875 -5.253906 22.816406 -3.34375 21.359375 -2 C 19.910156 -0.664062 17.753906 0 14.890625 0 Z M 13.984375 -15.46875 C 15.453125 -15.46875 16.59375 -15.851562 17.40625 -16.625 C 18.226562 -17.394531 18.640625 -18.453125 18.640625 -19.796875 C 18.640625 -21.222656 18.242188 -22.289062 17.453125 -23 C 16.671875 -23.707031 15.515625 -24.0625 13.984375 -24.0625 L 7.171875 -24.0625 L 7.171875 -15.46875 Z M 14.65625 -2.59375 C 18.445312 -2.59375 20.34375 -4.304688 20.34375 -7.734375 C 20.34375 -11.160156 18.445312 -12.875 14.65625 -12.875 L 7.171875 -12.875 L 7.171875 -2.59375 Z M 14.65625 -2.59375 "/></g></g></g><g fill="#ffffff" fill-opacity="1"><g transform="translate(562.277834, 555.576388)"><g><path d="M 11.65625 0.390625 C 9.976562 0.390625 8.472656 0.160156 7.140625 -0.296875 C 5.804688 -0.753906 4.695312 -1.351562 3.8125 -2.09375 C 2.925781 -2.832031 2.265625 -3.648438 1.828125 -4.546875 L 3.53125 -6.625 L 4 -6.625 C 5.644531 -3.832031 8.195312 -2.4375 11.65625 -2.4375 C 13.65625 -2.4375 15.144531 -2.851562 16.125 -3.6875 C 17.101562 -4.53125 17.59375 -5.703125 17.59375 -7.203125 C 17.59375 -8.078125 17.429688 -8.816406 17.109375 -9.421875 C 16.785156 -10.035156 16.253906 -10.554688 15.515625 -10.984375 C 14.773438 -11.421875 13.765625 -11.796875 12.484375 -12.109375 L 9.375 -12.875 C 7.050781 -13.4375 5.335938 -14.328125 4.234375 -15.546875 C 3.140625 -16.765625 2.59375 -18.3125 2.59375 -20.1875 C 2.59375 -21.507812 2.929688 -22.691406 3.609375 -23.734375 C 4.285156 -24.773438 5.28125 -25.585938 6.59375 -26.171875 C 7.90625 -26.753906 9.476562 -27.046875 11.3125 -27.046875 C 13.3125 -27.046875 15 -26.757812 16.375 -26.1875 C 17.757812 -25.625 18.863281 -24.78125 19.6875 -23.65625 L 18.15625 -21.59375 L 17.703125 -21.59375 C 16.941406 -22.53125 16.035156 -23.21875 14.984375 -23.65625 C 13.941406 -24.09375 12.71875 -24.3125 11.3125 -24.3125 C 9.457031 -24.3125 8.054688 -23.953125 7.109375 -23.234375 C 6.171875 -22.515625 5.703125 -21.523438 5.703125 -20.265625 C 5.703125 -19.054688 6.046875 -18.09375 6.734375 -17.375 C 7.429688 -16.664062 8.601562 -16.117188 10.25 -15.734375 L 13.4375 -14.96875 C 16.03125 -14.363281 17.90625 -13.429688 19.0625 -12.171875 C 20.226562 -10.910156 20.8125 -9.300781 20.8125 -7.34375 C 20.8125 -5.84375 20.472656 -4.507812 19.796875 -3.34375 C 19.117188 -2.1875 18.09375 -1.273438 16.71875 -0.609375 C 15.34375 0.0546875 13.65625 0.390625 11.65625 0.390625 Z M 11.65625 0.390625 "/></g></g></g><g fill="#ffffff" fill-opacity="1"><g transform="translate(585.129134, 555.576388)"><g><path d="M 12.65625 -26.65625 C 15.351562 -26.65625 17.671875 -26.171875 19.609375 -25.203125 C 21.546875 -24.242188 23.039062 -22.769531 24.09375 -20.78125 C 25.144531 -18.800781 25.671875 -16.316406 25.671875 -13.328125 C 25.671875 -10.335938 25.144531 -7.851562 24.09375 -5.875 C 23.039062 -3.894531 21.546875 -2.421875 19.609375 -1.453125 C 17.671875 -0.484375 15.351562 0 12.65625 0 L 4.03125 0 L 4.03125 -26.65625 Z M 12.34375 -2.65625 C 14.570312 -2.65625 16.414062 -3 17.875 -3.6875 C 19.332031 -4.382812 20.4375 -5.519531 21.1875 -7.09375 C 21.9375 -8.664062 22.3125 -10.742188 22.3125 -13.328125 C 22.3125 -15.929688 21.9375 -18.015625 21.1875 -19.578125 C 20.4375 -21.140625 19.332031 -22.265625 17.875 -22.953125 C 16.414062 -23.648438 14.570312 -24 12.34375 -24 L 7.171875 -24 L 7.171875 -2.65625 Z M 12.34375 -2.65625 "/></g></g></g><g fill="#ffffff" fill-opacity="1"><g transform="translate(791.085446, 502.244553)"><g><path d="M 6.578125 0 L 1.546875 0 L 13.734375 -20.09375 L 2.109375 -39.0625 L 7.265625 -39.0625 L 17.078125 -23.21875 L 17.734375 -23.21875 L 27.6875 -39.0625 L 32.59375 -39.0625 L 20.96875 -20.09375 L 33.15625 0 L 28.03125 0 L 17.640625 -16.90625 L 16.96875 -16.90625 Z M 6.578125 0 "/></g></g></g><g fill="#ffffff" fill-opacity="1"><g transform="translate(825.761288, 502.244553)"><g><path d="M 2.78125 0 L 2.78125 -3.796875 L 13.4375 -3.796875 L 13.4375 -33.671875 L 12.828125 -33.828125 C 11.097656 -32.972656 9.582031 -32.316406 8.28125 -31.859375 C 6.976562 -31.410156 5.3125 -30.96875 3.28125 -30.53125 L 3.28125 -34.765625 C 5.300781 -35.191406 7.289062 -35.769531 9.25 -36.5 C 11.21875 -37.226562 13.003906 -38.082031 14.609375 -39.0625 L 17.921875 -39.0625 L 17.921875 -3.796875 L 27.46875 -3.796875 L 27.46875 0 Z M 2.78125 0 "/></g></g></g><g fill="#ffffff" fill-opacity="1"><g transform="translate(854.880445, 502.244553)"><g><path d="M 2.78125 0 L 2.78125 -3.796875 L 13.4375 -3.796875 L 13.4375 -33.671875 L 12.828125 -33.828125 C 11.097656 -32.972656 9.582031 -32.316406 8.28125 -31.859375 C 6.976562 -31.410156 5.3125 -30.96875 3.28125 -30.53125 L 3.28125 -34.765625 C 5.300781 -35.191406 7.289062 -35.769531 9.25 -36.5 C 11.21875 -37.226562 13.003906 -38.082031 14.609375 -39.0625 L 17.921875 -39.0625 L 17.921875 -3.796875 L 27.46875 -3.796875 L 27.46875 0 Z M 2.78125 0 "/></g></g></g></svg>